<?xml version="1.0" encoding="iso-8859-1"?>
<!-- Generator: Adobe Illustrator 16.0.0, SVG Export Plug-In . SVG Version: 6.00 Build 0)  -->
<!DOCTYPE svg PUBLIC "-//W3C//DTD SVG 1.1//EN" "http://www.w3.org/Graphics/SVG/1.1/DTD/svg11.dtd">
<svg version="1.1" id="Capa_1" xmlns="http://www.w3.org/2000/svg" xmlns:xlink="http://www.w3.org/1999/xlink" x="0px" y="0px"
	 width="97.283px" height="97.283px" viewBox="0 0 97.283 97.283" style="enable-background:new 0 0 97.283 97.283;"
	 xml:space="preserve">
<g>
	<path d="M13.333,62.805l33.895,33.894c0.781,0.78,2.046,0.78,2.828,0l33.896-33.894c0.78-0.781,0.78-2.047,0-2.828l-9.03-9.031
		c-0.375-0.375-0.883-0.586-1.414-0.586c-0.529,0-1.039,0.211-1.414,0.586L57.56,65.477V2c0-1.104-0.896-2-2-2H41.725
		c-1.104,0-2,0.896-2,2v63.479L25.192,50.945c-0.75-0.75-2.078-0.75-2.828,0l-9.031,9.031c-0.375,0.375-0.586,0.883-0.586,1.414
		C12.747,61.92,12.958,62.43,13.333,62.805z"/>
</g>
<g>
</g>
<g>
</g>
<g>
</g>
<g>
</g>
<g>
</g>
<g>
</g>
<g>
</g>
<g>
</g>
<g>
</g>
<g>
</g>
<g>
</g>
<g>
</g>
<g>
</g>
<g>
</g>
<g>
</g>
</svg>
