<?xml version="1.0" encoding="iso-8859-1"?>
<!-- Generator: Adobe Illustrator 19.0.0, SVG Export Plug-In . SVG Version: 6.00 Build 0)  -->
<svg version="1.1" id="Layer_1" xmlns="http://www.w3.org/2000/svg" xmlns:xlink="http://www.w3.org/1999/xlink" x="0px" y="0px"
	 viewBox="0 0 360 360" style="enable-background:new 0 0 360 360;" xml:space="preserve">
<g id="XMLID_922_">
	<g>
		<g>
			<path d="M180,0C80.748,0,0,80.748,0,180s80.748,180,180,180s180-80.748,180-180S279.252,0,180,0z M180,340
				c-88.225,0-160-71.775-160-160S91.775,20,180,20s160,71.775,160,160S268.225,340,180,340z"/>
			<rect x="90" y="110" width="30" height="20"/>
			<rect x="150" y="110" width="120" height="20"/>
			<rect x="90" y="170" width="30" height="20"/>
			<rect x="150" y="170" width="120" height="20"/>
			<rect x="90" y="230" width="30" height="20"/>
			<rect x="150" y="230" width="120" height="20"/>
		</g>
	</g>
</g>
<g>
</g>
<g>
</g>
<g>
</g>
<g>
</g>
<g>
</g>
<g>
</g>
<g>
</g>
<g>
</g>
<g>
</g>
<g>
</g>
<g>
</g>
<g>
</g>
<g>
</g>
<g>
</g>
<g>
</g>
</svg>
