<?xml version="1.0" encoding="iso-8859-1"?>
<!-- Generator: Adobe Illustrator 19.0.0, SVG Export Plug-In . SVG Version: 6.00 Build 0)  -->
<svg version="1.1" id="Layer_1" xmlns="http://www.w3.org/2000/svg" xmlns:xlink="http://www.w3.org/1999/xlink" x="0px" y="0px"
	 viewBox="0 0 330 330" style="enable-background:new 0 0 330 330;" xml:space="preserve">
<g id="XMLID_6_">
	<g>
		<path d="M270.751,205.659c-11.044-16.116-25.425-29.362-42.128-38.965c19.56-17.503,31.893-42.925,31.893-71.177
			C260.517,42.849,217.668,0,164.999,0c-52.668,0-95.517,42.849-95.517,95.517c0,28.252,12.333,53.673,31.893,71.177
			c-16.703,9.604-31.084,22.849-42.128,38.965c-14.633,21.354-22.368,46.291-22.368,72.117V330h256.241v-52.224
			C293.121,251.95,285.385,227.012,270.751,205.659z M89.483,95.517c0-41.64,33.877-75.517,75.517-75.517
			s75.517,33.877,75.517,75.517c0,41.641-33.877,75.518-75.517,75.518S89.483,137.158,89.483,95.517z M56.879,310v-32.224
			c0-42.369,24.542-80.376,62.916-98.135c13.465,7.265,28.861,11.393,45.204,11.393c16.343,0,31.739-4.129,45.204-11.393
			c38.375,17.758,62.916,55.766,62.916,98.135V310H56.879z"/>
	</g>
</g>
<g>
</g>
<g>
</g>
<g>
</g>
<g>
</g>
<g>
</g>
<g>
</g>
<g>
</g>
<g>
</g>
<g>
</g>
<g>
</g>
<g>
</g>
<g>
</g>
<g>
</g>
<g>
</g>
<g>
</g>
</svg>
